<svg width="14" height="14" viewBox="0 0 14 14" fill="none" xmlns="http://www.w3.org/2000/svg">
<g clip-path="url(#clip0_64_6719)">
<mask id="mask0_64_6719" style="mask-type:luminance" maskUnits="userSpaceOnUse" x="0" y="0" width="14" height="14">
<path d="M14 0H0V14H14V0Z" fill="white"/>
</mask>
<g mask="url(#mask0_64_6719)">
<path d="M6.99981 2.10645C4.05611 2.10645 1.66113 4.50145 1.66113 7.44513C1.66113 10.389 4.05614 12.784 6.99981 12.784C9.94369 12.784 12.3385 10.389 12.3385 7.44513C12.3385 4.50145 9.94352 2.10645 6.99981 2.10645ZM6.99981 11.8164C4.58966 11.8164 2.62885 9.85547 2.62885 7.44532C2.62885 5.03517 4.58964 3.07436 6.99981 3.07436C9.40999 3.07436 11.3708 5.03517 11.3708 7.44532C11.3708 9.85561 9.40997 11.8164 6.99981 11.8164Z" fill="#222F5D"/>
<path d="M8.48362 7.28355H7.19333V5.41258C7.19333 5.14533 6.97672 4.92871 6.70946 4.92871C6.4422 4.92871 6.22559 5.14533 6.22559 5.41258V7.76742C6.22559 8.03468 6.4422 8.25129 6.70946 8.25129H8.48365C8.75091 8.25129 8.96752 8.03468 8.96752 7.76742C8.9675 7.50016 8.75088 7.28355 8.48362 7.28355Z" fill="#222F5D"/>
<path d="M4.25923 10.9074C4.06052 10.7286 3.75454 10.7449 3.57585 10.9434L2.12423 12.5563C1.94535 12.7548 1.96165 13.0608 2.16019 13.2395C2.25261 13.3229 2.36841 13.3639 2.48375 13.3639C2.61617 13.3639 2.74811 13.3098 2.84359 13.2036L4.29521 11.5907C4.47406 11.3921 4.45777 11.0861 4.25923 10.9074Z" fill="#222F5D"/>
<path d="M11.8761 12.5563L10.4245 10.9434C10.2461 10.7447 9.93997 10.7286 9.74124 10.9075C9.54253 11.0862 9.52656 11.3921 9.70528 11.5907L11.1569 13.2036C11.2522 13.3097 11.3842 13.3638 11.5166 13.3638C11.6317 13.3638 11.7475 13.3228 11.8401 13.2396C12.0388 13.0608 12.0548 12.7549 11.8761 12.5563Z" fill="#222F5D"/>
<path d="M4.17713 1.34182C3.21567 0.400371 1.66586 0.40182 0.72248 1.34537C0.253099 1.81456 -0.00335742 2.43537 3.31949e-05 3.09342C0.00358787 3.74357 0.261329 4.3523 0.726007 4.80746C0.820206 4.89955 0.942295 4.94552 1.06455 4.94552C1.18842 4.94552 1.31228 4.8981 1.40664 4.8039L4.18082 2.02973C4.27212 1.93829 4.32309 1.81423 4.32243 1.68506C4.32181 1.55583 4.26952 1.4323 4.17713 1.34182ZM1.11762 3.72421C1.02069 3.5289 0.968901 3.31277 0.967779 3.08825C0.965674 2.69084 1.12148 2.3147 1.40664 2.02954C1.69116 1.74519 2.06729 1.60308 2.44551 1.60308C2.66664 1.60308 2.88859 1.65162 3.09309 1.74872L1.11762 3.72421Z" fill="#222F5D"/>
<path d="M13.2769 1.34433C12.3334 0.400946 10.7835 0.399333 9.82209 1.34078C9.72984 1.43126 9.67742 1.55482 9.67676 1.68399C9.67611 1.81319 9.72724 1.93739 9.81854 2.02866L12.5927 4.80284C12.6871 4.89736 12.8109 4.94461 12.9348 4.94461C13.0571 4.94461 13.1793 4.89865 13.2733 4.80623C13.7382 4.35123 13.9959 3.74253 13.9993 3.09235C14.0027 2.43449 13.7461 1.81368 13.2769 1.34433ZM12.8818 3.72334L10.9063 1.74787C11.4608 1.48463 12.1419 1.57804 12.5927 2.02882C12.8779 2.31399 13.0337 2.68994 13.0316 3.08754C13.0304 3.3119 12.9787 3.52818 12.8818 3.72334Z" fill="#222F5D"/>
</g>
</g>
<defs>
<clipPath id="clip0_64_6719">
<rect width="14" height="14" fill="white"/>
</clipPath>
</defs>
</svg>
